<?xml version="1.0" encoding="UTF-8"?>
<svg viewBox="0 0 236.30075 81.747704" xmlns="http://www.w3.org/2000/svg">
 <defs>
  <linearGradient id="a" x1="-12.325" x2="244.99" gradientUnits="userSpaceOnUse">
   <stop offset="0"/>
   <stop stop-opacity="0" offset="1"/>
  </linearGradient>
 </defs>
 <g transform="translate(-5.965 16.809)">
  <path d="m98.507 53.529c51.143 3.5372-54.664 4.5222-61.114 4.694 106.07 2.109 157.17 7.0832-5.1074 6.6949 129.51-18.528 118.82-20.436 152.82-20.042 4.0359 0.04678-1.083 5.5033 4.7897 5.824-53.259 3.4195-70.017 8.7891 38.556-8.6258 1.1072 2.8817 7.4758 1.3376 13.819 6.1703-15.311-0.22867 1.0234 3.8764-26.452 4.5691-29.546-1.764-92.203 7.5772-79.378 5.3982-18.709-6.0972-97.663 4.8133-78.253 1.5813 263.89 6.9059-205.84 2.311 3.0474-6.2658 59.636-1.3972 76.215 4.1142 10.172 4.3054l27.105-4.3041 1.2e-4 6.3e-5z" fill="url(#a)"/>
  <path d="m32.997 18.543c-0.76666 1.1908 2.0468-43.103 6.5052-32.864 3.9807 9.1416 5.6389 10.087 20.25 46.15" fill="none" stroke="#000" stroke-width="1.9"/>
  <path d="m129.54 42.906c7.4584-10.795 26.901-45.056 35.253-36.393 10.314 10.699 20.505 28.065 31.579 40.684 1.8584 0.07962 8.3455-7.9834 8.3455-7.9834" fill="none" stroke="#000" stroke-width="1.9"/>
  <path d="m130.11 37.796c36.793-15.35 58.565-16.659 93.935-0.78466 2.6137 1.2641 1.8707-5.0903 1.8707-5.0903" fill="none" stroke="#000" stroke-width="1.9"/>
  <path d="m207.45 39.118c4.218 1.5532 10.493-2.158 7.9414-0.08539-5.2534 4.2671-5.4195 2.9002-10.952 5.641-5.9914 2.9682-14.24 4.5581 3.0105-5.5556z" fill-rule="evenodd" stroke="#000"/>
  <path d="m223.91 34.997c1.3251 3.2235-1.2538 5.6219 1.2019 3.8362 5.0558-3.6764 10.631-9.4118 8.5886-14.212-2.2233-5.2254 2.596-1.9086-9.7905 10.376z" fill-rule="evenodd" stroke="#000"/>
  <path d="m61.231 40.408c12.883-14.733 17.713-29.458 16.836-42.615-0.43926-6.5949-38.57 68.313-52.218 53.476" fill="none" stroke="#000" stroke-width="1.9"/>
  <path d="m29.369 49.512c-3.0007 0.03928-8.7508-1.7757-7.6228-0.13812 1.0802 1.5686 4.6219 6.957 7.5441 4.726 3.181-2.4285 11.785-1.5064 0.07865-4.5878z" fill-rule="evenodd" stroke="#000"/>
  <path d="m57.411 30.62c2.6968 2.2363 1.545 1.6892 4.5404 3.511 9.5895 5.47 60.228 7.9554 67.478 2.6265 0.41042 15.376-39.961 23.748-68.166 5.4157-1.7824-1.1585-3.4848-12.753-3.8529-11.553z" fill="none" stroke="#000" stroke-linecap="round" stroke-linejoin="round" stroke-width="3"/>
  <path transform="matrix(-.02365 -1.0851 1.0012 -.00292 -337.68 526.69)" d="m444.03 362.03a12.857 25 0 1 1 -0.12053 0.22395" fill="none" stroke="#000" stroke-linecap="round" stroke-width="2.3534"/>
  <path transform="matrix(-.12713 -.99189 .99189 -.12713 -306.24 366.96)" d="m293.26 368.63a3.5714 4.6429 0 1 1 -0.0335 0.0416" fill="none" stroke="#000" stroke-linecap="round" stroke-width="2.075"/>
  <path d="m46.113 23.036c1.3738 3.9491-0.38684 7.119-2.8296 9.0745" fill="none" stroke="#000" stroke-width="1.25"/>
 </g>
</svg>
