<?xml version="1.0" encoding="utf-8"?>
<!-- Generator: Adobe Illustrator 18.1.1, SVG Export Plug-In . SVG Version: 6.00 Build 0)  -->
<svg version="1.1" id="Layer_1" xmlns="http://www.w3.org/2000/svg" xmlns:xlink="http://www.w3.org/1999/xlink" x="0px" y="0px"
	 viewBox="0 0 3000 3000" enable-background="new 0 0 3000 3000" xml:space="preserve">
<g>
	<ellipse fill="#B0E7FF" cx="1500" cy="1066.4" rx="1310.2" ry="837.4"/>
	<path fill="#69D5FF" d="M271.9,2006.8c0,0-215.1,217.8,130,373.3s102,22.7,303,262.3S1473,2351,1683,2525.8
		c210,174.9,411,291.5,660.1,81s495,116.6,447-106.9c-48-223.5-276-116.6-264-233.2c12-116.6,314.9,10.2,252-166.1
		c-22.7-63.5-41.3-82.3-41.3-82.3L271.9,2006.8z"/>
	<ellipse fill="#48E65F" cx="1500" cy="2035.5" rx="1241.6" ry="193.5"/>
	<g>
		<polygon fill="#39B54A" points="1334.8,2035.5 371.2,2035.5 615.6,1545.4 853,1069.4 1049.8,1464.1 		"/>
		<path fill="#2B8A39" d="M1334.8,2035.5H371.2l244.4-490.1c25,12.5,53.4,29.3,85.4,51.6c151.8,105.7,253.9-49.3,348.8-132.9
			L1334.8,2035.5z"/>
	</g>
	<g>
		<polygon fill="#39B54A" points="2628.8,2035.5 1665.2,2035.5 1935.4,1493.8 2147,1069.4 2360.4,1497.2 		"/>
		<path fill="#2B8A39" d="M2628.8,2035.5h-963.6l270.2-541.8c53.3,11.6,115.2,43.8,179.6,115.2c75.7,84,165.7,7.4,245.4-111.8
			L2628.8,2035.5z"/>
	</g>
	<g>
		<polygon fill="#39B54A" points="1981.8,2117 1018.2,2117 1251.5,1497.2 1500,837 1763.9,1538.1 		"/>
		<path fill="#2E943D" d="M1981.8,2117h-963.6l233.3-619.8c48.7,18,100.9,51.9,131.3,115.6c69,144,184.7-216,272.4-120
			c32.6,35.7,71.4,47.3,108.7,45.3L1981.8,2117z"/>
	</g>
	<circle fill="#C4EDFF" cx="1093" cy="737" r="265"/>
	<circle fill="#FBB040" stroke="#F9ED32" stroke-miterlimit="10" cx="1093" cy="737" r="136"/>
	<path fill="#6F9AAB" d="M2285.8,530c-10.9,0-21.5,1.9-31.2,5.3c-15.6-30.5-47.2-51.3-83.8-51.3c-48.7,0-88.8,37.1-93.5,84.5
		c-6.2-1.6-12.7-2.5-19.5-2.5c-42,0-76,34-76,76s34,76,76,76h228c51.9,0,94-42.1,94-94S2337.7,530,2285.8,530z"/>
	<path fill="#6F9AAB" d="M643.8,967.9c-9,0-17.6,1.5-25.6,4.4c-12.7-24.9-38.7-42-68.6-42c-39.9,0-72.7,30.4-76.6,69.2
		c-5.1-1.3-10.4-2.1-15.9-2.1c-34.4,0-62.2,27.9-62.2,62.2c0,34.4,27.9,62.3,62.2,62.3h186.7c42.5,0,77-34.5,77-77
		S686.3,967.9,643.8,967.9z"/>
	<path fill="#6F9AAB" d="M1918,874.7c-9,0-17.6,1.5-25.6,4.4c-12.7-24.9-38.7-42-68.6-42c-39.9,0-72.7,30.4-76.6,69.2
		c-5.1-1.3-10.4-2.1-15.9-2.1c-34.4,0-62.2,27.9-62.2,62.2s27.9,62.2,62.2,62.2H1918c42.5,0,77-34.5,77-77S1960.5,874.7,1918,874.7z
		"/>
	<path fill="#00A651" d="M315.8,2029.5c0,0-52-59.5-34-47.9s22.7,19.4,18-1.5c-4.7-20.8-21.3-70.1-6.7-46.2
		c14.7,23.9,23.3,61.6,22.7,47.7c-0.7-13.9-7.3-83.9,0-60c7.3,23.9,3.3,61.6,7.3,62.4c4,0.8,6.7-99.9,16-67.3
		c9.3,32.6-13.3,70.8-4.8,70.7c8.5-0.1,25.1-71.3,26.3-49.3s-13.5,48.2-7.5,49.7s16.7-33.1,18-11.5c1.3,21.6-31.3,53.3-31.3,53.3
		H315.8z"/>
	<path fill="#00A651" d="M948.9,2176.7c0,0-52-59.5-34-47.9c18,11.5,22.7,19.4,18-1.5c-4.7-20.8-21.3-70.1-6.7-46.2
		c14.7,23.9,23.3,61.6,22.7,47.7c-0.7-13.9-7.3-83.9,0-60c7.3,23.9,3.3,61.6,7.3,62.4s6.7-99.9,16-67.3c9.3,32.6-13.3,70.8-4.8,70.7
		c8.5-0.1,25.1-71.3,26.3-49.3c1.2,22-13.5,48.2-7.5,49.7s16.7-33.1,18-11.5c1.3,21.6-31.3,53.3-31.3,53.3H948.9z"/>
	<path fill="#00A651" d="M2656.6,2029.5c0,0-52-59.5-34-47.9s22.7,19.4,18-1.5c-4.7-20.8-21.3-70.1-6.7-46.2
		c14.7,23.9,23.3,61.6,22.7,47.7c-0.7-13.9-7.3-83.9,0-60c7.3,23.9,3.3,61.6,7.3,62.4c4,0.8,6.7-99.9,16-67.3
		c9.3,32.6-13.3,70.8-4.8,70.7c8.5-0.1,25.1-71.3,26.3-49.3c1.2,22-13.5,48.2-7.5,49.7s16.7-33.1,18-11.5
		c1.3,21.6-31.3,53.3-31.3,53.3H2656.6z"/>
	<path fill="#00A651" d="M2047.5,2176.7c0,0-52-59.5-34-47.9c18,11.5,22.7,19.4,18-1.5c-4.7-20.8-21.3-70.1-6.7-46.2
		s23.3,61.6,22.7,47.7c-0.7-13.9-7.3-83.9,0-60c7.3,23.9,3.3,61.6,7.3,62.4s6.7-99.9,16-67.3c9.3,32.6-13.3,70.8-4.8,70.7
		c8.5-0.1,25.1-71.3,26.3-49.3c1.2,22-13.5,48.2-7.5,49.7s16.7-33.1,18-11.5s-31.3,53.3-31.3,53.3H2047.5z"/>
	<path fill="#00A651" d="M2277,2154.9c0,0-52-59.5-34-47.9c18,11.5,22.7,19.4,18-1.5c-4.7-20.8-21.3-70.1-6.7-46.2
		c14.7,23.9,23.3,61.6,22.7,47.7c-0.7-13.9-7.3-83.9,0-60c7.3,23.9,3.3,61.6,7.3,62.4s6.7-99.9,16-67.3c9.3,32.6-13.3,70.8-4.8,70.7
		c8.5-0.1,25.1-71.3,26.3-49.3c1.2,22-13.5,48.2-7.5,49.7s16.7-33.1,18-11.5s-31.3,53.3-31.3,53.3H2277z"/>
	<path fill="#00A651" d="M830.8,2117c0,0-52-59.5-34-47.9c18,11.5,22.7,19.3,18-1.5c-4.7-20.8-21.3-70.1-6.7-46.2
		s23.3,61.6,22.7,47.7c-0.7-13.9-7.3-83.9,0-60c7.3,23.9,3.3,61.6,7.3,62.4s6.7-99.9,16-67.3s-13.3,70.8-4.8,70.7
		c8.5-0.1,25.1-71.3,26.3-49.3c1.2,22-13.5,48.2-7.5,49.7s16.7-33.1,18-11.5c1.3,21.6-31.3,53.3-31.3,53.3H830.8z"/>
</g>
</svg>
